<?xml version="1.0" encoding="UTF-8" standalone="no"?>
<!-- Created with Inkscape (http://www.inkscape.org/) -->

<svg
   width="135.46666mm"
   height="135.46666mm"
   viewBox="0 0 135.46666 135.46666"
   version="1.1"
   id="svg1"
   inkscape:version="1.4.2 (f4327f4, 2025-05-13)"
   sodipodi:docname="Yukari.svg"
   xmlns:inkscape="http://www.inkscape.org/namespaces/inkscape"
   xmlns:sodipodi="http://sodipodi.sourceforge.net/DTD/sodipodi-0.dtd"
   xmlns:xlink="http://www.w3.org/1999/xlink"
   xmlns="http://www.w3.org/2000/svg"
   xmlns:svg="http://www.w3.org/2000/svg">
  <sodipodi:namedview
     id="namedview1"
     pagecolor="#ffffff"
     bordercolor="#000000"
     borderopacity="0.25"
     inkscape:showpageshadow="2"
     inkscape:pageopacity="0.0"
     inkscape:pagecheckerboard="0"
     inkscape:deskcolor="#d1d1d1"
     inkscape:document-units="mm"
     inkscape:zoom="0.7198092"
     inkscape:cx="109.75131"
     inkscape:cy="307.0258"
     inkscape:window-width="1920"
     inkscape:window-height="1010"
     inkscape:window-x="-6"
     inkscape:window-y="-6"
     inkscape:window-maximized="1"
     inkscape:current-layer="layer1" />
  <defs
     id="defs1">
    <linearGradient
       id="linearGradient1"
       inkscape:collect="always">
      <stop
         style="stop-color:#dd55ff;stop-opacity:1"
         offset="0"
         id="stop1" />
      <stop
         style="stop-color:#440055;stop-opacity:1"
         offset="1"
         id="stop2" />
    </linearGradient>
    <linearGradient
       inkscape:collect="always"
       xlink:href="#linearGradient1"
       id="linearGradient2"
       x1="111.05241"
       y1="-44.889034"
       x2="231.34126"
       y2="-168.50337"
       gradientUnits="userSpaceOnUse"
       gradientTransform="rotate(90,-0.83136675,0.83136427)" />
  </defs>
  <g
     inkscape:label="Layer 1"
     inkscape:groupmode="layer"
     id="layer1"
     transform="translate(-38.962872,-105.12624)">
    <path
       id="rect1"
       style="fill:url(#linearGradient2);fill-opacity:1;stroke-width:0.0646234"
       d="m 62.393481,112.71522 c -1.022476,0 -2.044777,0.39165 -2.828251,1.17513 l -13.500985,13.50098 c -1.566948,1.56695 -1.566948,4.09007 0,5.65702 l 47.085498,47.0855 v 48.8704 c 0,2.216 1.783756,3.99975 3.999756,3.99975 h 19.093411 c 2.216,0 3.99976,-1.78375 3.99976,-3.99975 v -48.8704 l 47.08549,-47.0855 c 1.56695,-1.56695 1.56695,-4.09007 0,-5.65702 l -13.50098,-13.50098 c -1.56695,-1.56695 -4.09007,-1.56695 -5.65702,0 L 106.69621,155.3643 65.222249,113.89035 c -0.783474,-0.78348 -1.806291,-1.17513 -2.828768,-1.17513 z" />
  </g>
</svg>
