<?xml version="1.0" encoding="UTF-8" standalone="no"?>
<!-- Created with Inkscape (http://www.inkscape.org/) -->

<svg
   width="12.7mm"
   height="12.7mm"
   viewBox="0 0 12.7 12.7"
   version="1.1"
   id="svg1"
   xml:space="preserve"
   inkscape:version="1.3.2 (091e20e, 2023-11-25, custom)"
   sodipodi:docname="App.svg"
   xmlns:inkscape="http://www.inkscape.org/namespaces/inkscape"
   xmlns:sodipodi="http://sodipodi.sourceforge.net/DTD/sodipodi-0.dtd"
   xmlns:xlink="http://www.w3.org/1999/xlink"
   xmlns="http://www.w3.org/2000/svg"
   xmlns:svg="http://www.w3.org/2000/svg"><sodipodi:namedview
     id="namedview1"
     pagecolor="#ffffff"
     bordercolor="#cccccc"
     borderopacity="1"
     inkscape:showpageshadow="0"
     inkscape:pageopacity="1"
     inkscape:pagecheckerboard="0"
     inkscape:deskcolor="#d1d1d1"
     inkscape:document-units="mm"
     inkscape:zoom="5.8012346"
     inkscape:cx="10.515003"
     inkscape:cy="28.614599"
     inkscape:window-width="1920"
     inkscape:window-height="1010"
     inkscape:window-x="-6"
     inkscape:window-y="-6"
     inkscape:window-maximized="1"
     inkscape:current-layer="layer1" /><defs
     id="defs1"><linearGradient
       id="linearGradient2"
       inkscape:collect="always"><stop
         style="stop-color:#bf3fbf;stop-opacity:1;"
         offset="0"
         id="stop2" /><stop
         style="stop-color:#652265;stop-opacity:1;"
         offset="1"
         id="stop3" /></linearGradient><linearGradient
       inkscape:collect="always"
       xlink:href="#linearGradient2"
       id="linearGradient3"
       x1="87.525963"
       y1="109.91521"
       x2="94.040421"
       y2="122.6152"
       gradientUnits="userSpaceOnUse" /></defs><g
     inkscape:label="Layer 1"
     inkscape:groupmode="layer"
     id="layer1"
     transform="translate(-84.465889,-109.91521)"><rect
       style="fill:url(#linearGradient3);fill-opacity:1;stroke:none;stroke-width:0.0915984;stroke-opacity:1"
       id="rect1"
       width="12.7"
       height="12.7"
       x="84.465889"
       y="109.91521"
       ry="2" /><path
       style="fill:#ffffff;stroke-width:0.157697"
       d="m 87.640078,120.94481 c -0.366636,-0.0971 -0.407934,-0.20342 -0.388604,-1.00052 0.0084,-0.34419 0.0025,-0.61795 -0.01303,-0.60835 -0.01553,0.01 -0.0949,0.11789 -0.17638,0.24065 -0.198424,0.29894 -0.726589,0.86016 -0.855688,0.90924 -0.07676,0.0292 -0.119546,0.0235 -0.164946,-0.0219 -0.05388,-0.0539 -0.05263,-0.10561 0.0109,-0.42938 0.03968,-0.20246 0.08858,-0.45259 0.108631,-0.55585 0.02005,-0.10328 0.05622,-0.32858 0.08036,-0.50069 0.02414,-0.17211 0.06323,-0.42557 0.08693,-0.56328 0.06248,-0.36353 0.06967,-1.16473 0.0112,-1.23551 -0.0573,-0.0694 -0.10143,-0.26911 -0.261425,-1.18446 -0.100295,-0.57383 -0.04485,-0.72729 0.234554,-0.6497 0.08762,0.0243 0.273128,0.0444 0.412235,0.0444 0.23421,1.5e-4 0.259956,-0.009 0.347899,-0.12822 0.0522,-0.0707 0.08862,-0.13298 0.08086,-0.13851 -0.0075,-0.005 -0.09216,-0.0324 -0.187557,-0.0598 -0.102541,-0.0294 -0.224036,-0.10736 -0.297161,-0.19065 -0.159122,-0.18125 -0.277597,-0.55168 -0.243993,-0.76292 0.07701,-0.48411 0.07727,-0.51292 0.0067,-0.68936 -0.03919,-0.0984 -0.116671,-0.23883 -0.172129,-0.31188 -0.116203,-0.15308 -0.126269,-0.23224 -0.03876,-0.30483 0.04953,-0.041 0.122777,-0.0378 0.362409,0.0164 0.188159,0.0425 0.315062,0.0531 0.339713,0.0286 0.02164,-0.0216 0.04736,-0.2613 0.05714,-0.53257 0.02164,-0.59952 0.0345,-0.66887 0.129676,-0.69908 0.124273,-0.0394 1.70843,0.15439 2.053137,0.2512 0.157778,0.0443 0.208626,0.0993 0.208626,0.22586 0,0.13651 -0.05555,0.18856 -0.244603,0.22901 -0.12641,0.0271 -0.464703,0.28238 -0.464703,0.35074 0,0.0152 0.117347,0.061 0.260773,0.10175 0.143428,0.0408 0.298323,0.0905 0.344224,0.11058 0.04587,0.02 0.205483,0.0779 0.354648,0.12885 0.434115,0.14799 0.539049,0.18829 0.569446,0.21869 0.04728,0.0472 0.09814,0.0324 0.09814,-0.029 0,-0.13153 0.106881,-0.1566 0.381656,-0.0895 0.192075,0.047 1.470493,0.15514 1.522208,0.1289 0.0033,-0.002 0.01378,-0.12259 0.02388,-0.26906 l 0.01847,-0.26629 -0.941853,0.0208 c -0.619925,0.0136 -0.97926,0.0384 -1.051307,0.0725 -0.08444,0.0398 -0.130379,0.0403 -0.200931,0.002 -0.104095,-0.0558 -0.240075,-0.34465 -0.280154,-0.59531 l -0.02706,-0.16936 0.204506,0.0277 c 0.360429,0.0488 1.025571,0.10934 1.502529,0.1367 0.581949,0.0334 0.713264,-0.008 1.218013,-0.37779 0.287321,-0.21088 0.407601,-0.275 0.515893,-0.275 0.167893,0 1.002774,0.44904 1.276053,0.68632 0.149817,0.1301 0.177324,0.1783 0.177324,0.31069 0,0.15968 -0.100494,0.29491 -0.261401,0.35174 -0.04051,0.0143 -0.09355,0.0781 -0.117889,0.1418 -0.08011,0.20965 -0.181635,0.92966 -0.131023,0.92908 0.01679,-1.5e-4 0.104733,-0.15241 0.195468,-0.33828 0.256038,-0.52445 0.376259,-0.52446 0.728652,-2e-5 0.370921,0.55201 0.504123,0.80864 0.504123,0.97127 0,0.20106 -0.09649,0.24082 -0.615782,0.25378 l -0.428033,0.011 0.281992,0.36389 c 0.64192,0.82836 0.767536,1.02711 0.753762,1.19274 l -0.01279,0.15404 -0.271199,0.0252 c -0.280246,0.0261 -0.797775,0.19846 -0.823019,0.2742 -0.02573,0.0772 0.525264,0.55065 0.844955,0.72611 0.318361,0.17473 0.391186,0.27145 0.335786,0.446 -0.01395,0.0438 -0.072,0.10471 -0.128992,0.13525 -0.236849,0.12675 -0.358682,0.50779 -0.517329,1.61791 -0.06707,0.46911 -0.176723,0.49459 -0.532256,0.12366 -0.226434,-0.23623 -0.381705,-0.44891 -0.630325,-0.86333 l -0.08614,-0.1436 0.02364,0.26097 c 0.03609,0.39806 -0.102564,0.89995 -0.332805,1.20471 -0.130194,0.17233 -0.369994,0.33649 -0.636114,0.43545 -0.187648,0.0697 -0.776599,0.15674 -1.074387,0.15861 -0.147419,8.3e-4 -0.281639,-0.13375 -0.281639,-0.28257 0,-0.21345 -0.128283,-0.61245 -0.231572,-0.72026 -0.05614,-0.0585 -0.200638,-0.15884 -0.321168,-0.22281 -0.12053,-0.064 -0.239832,-0.14257 -0.265118,-0.17466 -0.03867,-0.0491 -0.104668,-0.0383 -0.41724,0.0681 -0.579853,0.19748 -0.630458,0.21117 -0.873173,0.23622 l -0.228262,0.0235 v 0.33002 c 0,0.58042 -0.126728,0.68656 -0.859248,0.71971 -0.250282,0.0113 -0.511381,0.005 -0.58023,-0.0126 z m 1.721652,-1.54955 c 0.140528,-0.10329 0.256573,-0.20973 0.257868,-0.2366 0.0016,-0.0268 -0.04929,-0.0607 -0.112378,-0.0751 -0.152006,-0.0348 -0.277698,-0.14304 -0.37351,-0.32181 l -0.07836,-0.14626 0.0016,0.49392 c 8.35e-4,0.27165 0.01236,0.48933 0.02548,0.48374 0.01312,-0.005 0.138749,-0.0946 0.279277,-0.19792 z m 2.212002,-0.0865 c 0.115634,-0.0403 0.217871,-0.19979 0.217871,-0.33983 0,-0.021 -0.150527,0.0427 -0.334509,0.14183 -0.31233,0.16821 -0.326866,0.18191 -0.219057,0.20652 0.175987,0.0402 0.197589,0.0396 0.335695,-0.009 z m -0.62335,-1.34978 c 0.256138,-0.26212 0.465706,-0.49793 0.465706,-0.524 0,-0.0261 -0.01412,-0.0408 -0.03133,-0.0326 -0.01721,0.009 -0.07818,0.037 -0.135599,0.0642 -0.196103,0.0927 -0.769892,0.30143 -0.828558,0.30143 -0.04445,0 -0.05237,0.0376 -0.03275,0.15647 0.01421,0.086 0.02607,0.23625 0.02631,0.33378 3.18e-4,0.0976 0.01621,0.17733 0.03541,0.17733 0.01922,0 0.244552,-0.21446 0.50069,-0.47659 z m -1.815611,-0.23775 c 0.0092,-0.1116 -0.0075,-0.23461 -0.03892,-0.29206 -0.04829,-0.087 -0.05472,-0.0453 -0.0522,0.33883 0.0025,0.33591 0.0112,0.40404 0.03892,0.29207 0.01988,-0.0803 0.04344,-0.23281 0.0522,-0.33884 z m -1.808259,-0.58951 c -8.36e-4,-0.29852 -0.02591,-0.32858 -0.229901,-0.27646 -0.09121,0.0233 -0.209485,0.0529 -0.26282,0.0657 -0.08452,0.0204 -0.174225,0.15512 -0.174225,0.26166 0,0.0193 0.09858,0.0487 0.219048,0.0652 0.120481,0.0165 0.256606,0.0452 0.3025,0.0638 0.138749,0.0563 0.146057,0.0471 0.145398,-0.17996 z m 2.9157,-0.25035 c 0.172496,-0.16638 0.450721,-0.44525 0.618272,-0.61974 l 0.304636,-0.31724 -0.323047,0.10021 c -0.420932,0.13063 -0.4457,0.14584 -0.462014,0.28381 -0.02029,0.17145 -0.19551,0.42525 -0.351065,0.50843 -0.07468,0.04 -0.239089,0.0827 -0.365308,0.095 l -0.229482,0.0224 0.187758,0.11311 c 0.103268,0.0622 0.214497,0.11385 0.247183,0.11474 0.03266,8.3e-4 0.200563,-0.13449 0.373067,-0.30087 z m 2.889882,-0.24808 c -0.02514,-0.14466 -0.05847,-0.51652 -0.07392,-0.82631 -0.01553,-0.3098 -0.03926,-0.60456 -0.05279,-0.65503 -0.02431,-0.0906 -0.02739,-0.09 -0.254091,0.0512 -0.181855,0.11325 -0.421011,0.21467 -0.626643,0.35882 l 0.290829,0.32071 c 0.30194,0.33295 0.638595,0.8038 0.689584,0.96447 0.05622,0.17708 0.07259,0.0477 0.02714,-0.21383 z m -3.870753,0.21713 c -0.04921,-0.0199 -0.119587,-0.0792 -0.156459,-0.1318 -0.06483,-0.0925 -0.06707,-0.0928 -0.06707,-0.01 0,0.0857 0.128717,0.17674 0.250341,0.17708 0.03475,1e-4 0.02281,-0.0159 -0.02681,-0.0359 z m 4.827591,-1.54412 c 0.02106,-0.12622 0.04745,-0.28112 0.05856,-0.34422 0.02022,-0.11464 0.02005,-0.11475 -0.229048,-0.11475 -0.240557,0 -0.249296,0.004 -0.249296,0.10835 0,0.1117 0.0746,0.41236 0.199636,0.80469 l 0.07159,0.22456 0.05514,-0.22456 c 0.03033,-0.12349 0.07234,-0.32782 0.09345,-0.45404 z m -5.134601,0.11306 c 1.25e-4,-0.0822 -0.174417,-0.36341 -0.225489,-0.36341 -0.04235,0 -0.525416,0.35943 -0.525508,0.39107 -8e-6,0.004 0.168954,0.005 0.375466,0.005 0.20651,0 0.375497,-0.0149 0.375531,-0.033 z m 1.538138,-0.30081 0.213169,-0.25036 -0.15589,-0.0136 c -0.08574,-0.008 -0.261308,0.009 -0.390142,0.0358 -0.31705,0.0671 -0.378488,0.0268 -0.518047,-0.33829 l -0.113338,-0.29661 -0.224337,0.22154 c -0.123378,0.12185 -0.224329,0.23424 -0.224329,0.24975 0,0.0155 0.04629,0.0398 0.102774,0.054 0.162079,0.0407 0.61016,0.31437 0.805535,0.49205 0.117624,0.10693 0.19739,0.15083 0.234787,0.1291 0.03115,-0.0181 0.152574,-0.14556 0.269821,-0.28325 z m 1.571126,-1.01329 c 0.0137,-0.0852 0.03425,-0.20013 0.04577,-0.2553 l 0.02089,-0.10032 -0.617838,0.0242 c -0.339803,0.0133 -0.664772,0.0421 -0.722144,0.064 -0.125784,0.0479 -0.33379,-0.0418 -0.33379,-0.14389 0,-0.0495 -0.02388,-0.0591 -0.09389,-0.0379 -0.05162,0.0157 -0.159592,0.0448 -0.239908,0.0648 -0.09235,0.023 -0.203085,0.10197 -0.301204,0.2151 l -0.155168,0.17895 0.176031,0.058 c 0.118357,0.039 0.497289,0.0667 1.156541,0.0846 0.539282,0.0146 0.993869,0.0213 1.010192,0.0146 0.01629,-0.006 0.04085,-0.0817 0.05456,-0.16692 z m -3.910824,-0.64525 c 0.08857,-0.1914 0.21748,-0.52038 0.21748,-0.55496 0,-0.0117 -0.141856,0.0744 -0.31523,0.19143 l -0.315221,0.2127 0.137896,0.16054 c 0.07585,0.0883 0.150302,0.16214 0.165472,0.16408 0.01512,0.002 0.06449,-0.0763 0.109599,-0.17379 z"
       id="path1"
       sodipodi:nodetypes="cccssscsscsscccccsscscccscsscsccccscccccccscsscssssscsssccssccssccssscssccscsscccsscccccsccccccscscccsccsscsccsccsscscssccccsccscccscccccsscsscccsssccccssscscccsssccccccccssccscccccscscsscsccccssccscss" /></g></svg>
